<?xml version="1.0" encoding="UTF-8" standalone="no"?>
<!-- Created with Inkscape (http://www.inkscape.org/) -->

<svg
   width="400"
   height="133.27917"
   viewBox="0 0 400 133.27918"
   version="1.1"
   id="svg5"
   xmlns:xlink="http://www.w3.org/1999/xlink"
   xmlns="http://www.w3.org/2000/svg"
   xmlns:svg="http://www.w3.org/2000/svg">
  <defs
     id="defs2">
    <linearGradient
       id="linearGradient1327">
      <stop
         style="stop-color:#672178;stop-opacity:1"
         offset="0"
         id="stop1323" />
      <stop
         style="stop-color:#c83771;stop-opacity:1"
         offset="1"
         id="stop1325" />
    </linearGradient>
    <linearGradient
       xlink:href="#linearGradient1327"
       id="linearGradient1329"
       x1="41.335144"
       y1="120.29225"
       x2="96.402138"
       y2="65.322701"
       gradientUnits="userSpaceOnUse" />
  </defs>
  <g
     id="layer1"
     transform="translate(-0.48712129,-11.887354)">
    <g
       id="g15912"
       transform="matrix(2.383474,0,0,2.383474,-97.766396,-143.09504)">
      <path
         id="path875"
         style="fill:url(#linearGradient1329);stroke-width:2.11667;stroke-linecap:round;paint-order:markers stroke fill;fill-opacity:1"
         d="m 69.181834,65.02374 a 27.959103,27.959103 0 0 0 -27.959015,27.959015 27.959103,27.959103 0 0 0 0.442349,4.853454 c 2.935761,-1.021072 7.264527,-2.209787 12.16515,-2.438096 0.663588,-0.03092 1.336693,-0.04406 2.016929,-0.03669 4.761659,0.0516 9.874538,1.11084 14.547432,4.150135 5.699294,3.706872 12.583104,2.974222 18.273305,1.144632 3.515743,-1.130429 6.443757,-2.63599 8.174177,-3.624069 A 27.959103,27.959103 0 0 0 97.140849,92.982755 27.959103,27.959103 0 0 0 96.163651,85.820403 15.254527,15.254527 0 0 1 81.4369,97.138058 15.254527,15.254527 0 0 1 66.182533,81.883694 15.254527,15.254527 0 0 1 78.910955,66.846886 27.959103,27.959103 0 0 0 69.181834,65.02374 Z m 12.351184,12.158432 a 4.8815598,4.8815598 0 0 0 -4.545976,3.577043 4.8815598,4.8815598 0 0 0 3.383257,6.001183 4.8815598,4.8815598 0 0 0 6.015653,-3.35897 l -4.694287,-1.340485 4.715475,1.263489 A 4.8815598,4.8815598 0 0 0 82.974791,77.351154 4.8815598,4.8815598 0 0 0 81.533018,77.182172 Z M 55.122744,99.823166 c -4.941528,0.08538 -9.488043,1.312694 -12.349118,2.282034 a 27.959103,27.959103 0 0 0 0.705385,1.83399 c 2.714567,-0.77416 6.084165,-1.48125 9.751343,-1.65209 0.671878,-0.0313 1.35346,-0.0447 2.042253,-0.0372 4.821536,0.0525 10.000122,1.12557 14.731399,4.20285 5.770499,3.75318 12.738869,3.01102 18.500164,1.15858 2.210908,-0.71088 4.187311,-1.56795 5.793443,-2.35644 a 27.959103,27.959103 0 0 0 1.105876,-2.61586 c -1.576879,0.73659 -3.390884,1.49517 -5.408972,2.14405 -6.341824,2.03911 -14.724546,3.07137 -21.963001,-1.63659 -3.999286,-2.60117 -8.596752,-3.397815 -12.908772,-3.323314 z m -0.583428,6.944794 c -3.260783,0.0564 -6.338054,0.60935 -8.903332,1.25625 a 27.959103,27.959103 0 0 0 23.54585,12.91756 27.959103,27.959103 0 0 0 20.678841,-9.15499 c -0.0044,0.001 -0.0086,0.003 -0.01292,0.004 -6.421056,2.06459 -14.909548,3.10847 -22.238435,-1.6583 -4.049252,-2.63367 -8.704188,-3.44014 -13.070004,-3.36465 z" />
      <g
         id="g15892"
         transform="matrix(2.3120651,0,0,2.3120651,-151.73701,-124.68871)">
        <g
           aria-label="DOSRIOS"
           transform="scale(1.1111385,0.89997783)"
           id="text3692"
           style="font-weight:bold;font-size:11.7595px;font-family:Garuda;-inkscape-font-specification:'Garuda, Bold';letter-spacing:-0.881966px;word-spacing:0px;stroke-width:0.293988">
          <path
             d="m 101.69971,105.20425 h -2.398938 v -8.231653 h 2.093188 q 2.17551,0 3.19859,1.011317 1.03483,1.011317 1.03483,3.069226 0,1.9756 -1.01131,3.06923 -1.01132,1.08188 -2.91636,1.08188 z m -0.12935,-7.055703 h -0.88197 v 5.879753 h 0.87021 q 1.3641,0 2.02263,-0.74085 0.65853,-0.74085 0.65853,-2.2931 0,-1.50522 -0.63501,-2.175512 -0.63501,-0.670291 -2.03439,-0.670291 z"
             id="path15782"
             style="fill:#aa0088" />
          <path
             d="m 109.10819,105.26304 q -1.50522,0 -2.39894,-1.16419 -0.89372,-1.17595 -0.89372,-3.18682 0,-1.881521 0.91724,-2.998673 0.91724,-1.128912 2.37542,-1.128912 1.45818,0 2.37542,1.128912 0.91724,1.117152 0.91724,2.998673 0,2.01087 -0.89372,3.18682 -0.89372,1.16419 -2.39894,1.16419 z m 0,-7.302645 q -0.85844,0 -1.38762,0.811405 -0.51742,0.811406 -0.51742,2.14023 0,1.38762 0.51742,2.28134 0.52918,0.89372 1.38762,0.89372 0.85844,0 1.37586,-0.89372 0.52918,-0.89372 0.52918,-2.28134 0,-1.328824 -0.52918,-2.14023 -0.51742,-0.811405 -1.37586,-0.811405 z"
             id="path15784"
             style="fill:#aa0088" />
          <path
             d="m 112.71835,99.300978 q 0,-1.17595 0.71733,-1.846242 0.71733,-0.670291 1.92856,-0.670291 1.07011,0 1.74041,0.435101 0.67029,0.423342 0.97603,1.246507 l -1.39938,0.47038 q -0.22343,-0.540937 -0.54093,-0.752608 -0.30575,-0.22343 -0.82317,-0.22343 -0.56445,0 -0.89372,0.293987 -0.31751,0.282228 -0.31751,0.787887 0,0.540937 0.31751,0.799646 0.31751,0.258705 1.17595,0.423345 1.39938,0.27047 2.02263,0.88196 0.62326,0.59973 0.62326,1.46994 0,1.28178 -0.76437,1.96383 -0.76437,0.68205 -2.17551,0.68205 -1.09363,0 -1.86976,-0.50565 -0.76437,-0.50566 -1.04659,-1.46994 l 1.4229,-0.42334 q 0.19991,0.57621 0.59973,0.90548 0.39982,0.3175 1.05835,0.3175 0.56446,0 0.97604,-0.34102 0.41159,-0.35279 0.41159,-0.78789 0,-0.54093 -0.35279,-0.85844 -0.34102,-0.31751 -1.14067,-0.4939 -1.55225,-0.34103 -2.10495,-0.82317 -0.54094,-0.49389 -0.54094,-1.481692 z"
             id="path15786"
             style="fill:#aa0088" />
          <path
             d="m 122.514,96.972597 q 1.41114,0 2.05792,0.611494 0.65853,0.599734 0.65853,1.88152 0,0.540939 -0.18815,0.846679 -0.1764,0.30575 -0.83493,0.83493 0.89372,0.61149 0.89372,1.76392 v 0.76437 q 0,0.74085 0.42335,1.09364 v 0.4351 h -1.4817 q -0.21167,-0.52918 -0.27047,-0.81141 -0.0588,-0.29399 -0.0588,-0.76437 v -0.50565 q 0,-0.72909 -0.25871,-1.03484 -0.2587,-0.30575 -0.89372,-0.30575 h -2.42245 v 3.42202 h -1.38763 v -8.231653 z m 0.28223,3.633683 q 0.5527,0 0.79965,-0.29399 0.24695,-0.29398 0.24695,-0.964274 0,-0.564456 -0.31751,-0.881963 -0.30575,-0.317506 -0.9878,-0.317506 h -2.39893 v 2.457733 z"
             id="path15788"
             style="fill:#00aad4" />
          <path
             d="m 125.97128,105.20425 v -8.231653 h 1.38762 v 8.231653 z"
             id="path15790"
             style="fill:#00aad4" />
          <path
             d="m 131.29831,105.26304 q -1.50521,0 -2.39894,-1.16419 -0.89372,-1.17595 -0.89372,-3.18682 0,-1.881521 0.91724,-2.998673 0.91724,-1.128912 2.37542,-1.128912 1.45818,0 2.37542,1.128912 0.91724,1.117152 0.91724,2.998673 0,2.01087 -0.89372,3.18682 -0.89372,1.16419 -2.39894,1.16419 z m 0,-7.302645 q -0.85844,0 -1.38762,0.811405 -0.51742,0.811406 -0.51742,2.14023 0,1.38762 0.51742,2.28134 0.52918,0.89372 1.38762,0.89372 0.85844,0 1.37586,-0.89372 0.52918,-0.89372 0.52918,-2.28134 0,-1.328824 -0.52918,-2.14023 -0.51742,-0.811405 -1.37586,-0.811405 z"
             id="path15792"
             style="fill:#00aad4" />
          <path
             d="m 134.90847,99.300978 q 0,-1.17595 0.71733,-1.846242 0.71733,-0.670291 1.92856,-0.670291 1.07012,0 1.74041,0.435101 0.67029,0.423342 0.97604,1.246507 l -1.39939,0.47038 q -0.22343,-0.540937 -0.54093,-0.752608 -0.30575,-0.22343 -0.82317,-0.22343 -0.56445,0 -0.89372,0.293987 -0.31751,0.282228 -0.31751,0.787887 0,0.540937 0.31751,0.799646 0.31751,0.258705 1.17595,0.423345 1.39938,0.27047 2.02263,0.88196 0.62326,0.59973 0.62326,1.46994 0,1.28178 -0.76437,1.96383 -0.76437,0.68205 -2.17551,0.68205 -1.09363,0 -1.86976,-0.50565 -0.76436,-0.50566 -1.04659,-1.46994 l 1.4229,-0.42334 q 0.19991,0.57621 0.59973,0.90548 0.39982,0.3175 1.05836,0.3175 0.56445,0 0.97603,-0.34102 0.41159,-0.35279 0.41159,-0.78789 0,-0.54093 -0.35279,-0.85844 -0.34102,-0.31751 -1.14067,-0.4939 -1.55225,-0.34103 -2.10495,-0.82317 -0.54094,-0.49389 -0.54094,-1.481692 z"
             id="path15794"
             style="fill:#00aad4" />
        </g>
        <g
           aria-label="turismo"
           id="text6560"
           style="font-size:5.47266px;font-family:Garuda;-inkscape-font-specification:'Garuda, Normal';letter-spacing:1.04476px;word-spacing:0px;stroke-width:0.136816;fill:#6c535d">
          <path
             d="m 111.17423,100.31781 q 0,0.24627 0.0602,0.34478 0.0657,0.0985 0.20249,0.0985 0.0821,0 0.21343,-0.0164 l 0.0711,0.37761 q -0.16965,0.0328 -0.36666,0.0328 -0.39404,0 -0.53085,-0.17513 -0.13682,-0.17512 -0.13682,-0.68955 v -1.636328 h -0.35025 v -0.366668 h 0.35025 v -0.705973 l 0.48707,-0.290051 v 0.996024 h 0.47612 v 0.366668 h -0.47612 z"
             id="path15811"
             style="fill:#6c535d" />
          <path
             d="m 114.2165,100.79393 q 0.4214,0 0.5801,-0.25174 0.16418,-0.25174 0.16418,-0.73881 v -1.515926 h 0.48707 v 2.834836 h -0.48707 v -0.42139 q -0.23532,0.48706 -0.84279,0.48706 -0.52537,0 -0.74975,-0.27363 -0.21891,-0.27363 -0.21891,-0.87563 v -1.751246 h 0.48707 v 1.570653 q 0,0.514433 0.1204,0.727863 0.1204,0.20796 0.4597,0.20796 z"
             id="path15813"
             style="fill:#6c535d" />
          <path
             d="m 117.23689,101.12229 v -2.834836 h 0.48707 v 0.426867 q 0.20249,-0.492539 0.56368,-0.492539 0.24627,0 0.49254,0.147762 l -0.15871,0.355722 q -0.16418,-0.109453 -0.35025,-0.109453 -0.24079,0 -0.39403,0.257215 -0.15323,0.257215 -0.15323,0.766173 v 1.483089 z"
             id="path15815"
             style="fill:#6c535d" />
          <path
             d="m 120.10951,97.756606 v -0.552739 h 0.48707 v 0.552739 z m 0,3.365684 v -2.834836 h 0.48707 v 2.834836 z"
             id="path15817"
             style="fill:#6c535d" />
          <path
             d="m 123.34333,99.907361 q -0.60747,-0.153234 -0.84827,-0.333832 -0.23532,-0.186071 -0.23532,-0.541794 0,-0.355722 0.26269,-0.580102 0.26816,-0.229851 0.77712,-0.229851 0.5199,0 0.78806,0.191543 0.26816,0.18607 0.34478,0.601992 l -0.47613,0.0602 q -0.0328,-0.229852 -0.19154,-0.344778 -0.15323,-0.114926 -0.43234,-0.114926 -0.29005,0 -0.43781,0.09304 -0.14776,0.08756 -0.14776,0.273633 0,0.153235 0.14229,0.251743 0.14776,0.09304 0.6403,0.207961 0.57463,0.136816 0.78806,0.322887 0.21343,0.18607 0.21343,0.519893 0,0.41593 -0.31741,0.6622 -0.31194,0.24079 -0.8209,0.24079 -0.54179,0 -0.83732,-0.23532 -0.29552,-0.23533 -0.37761,-0.67861 l 0.47612,-0.0766 q 0.0383,0.28458 0.21344,0.44329 0.18059,0.15323 0.52537,0.15323 0.33383,0 0.49254,-0.11492 0.15871,-0.1204 0.15871,-0.33931 0,-0.16418 -0.12587,-0.2408 -0.12588,-0.0821 -0.57463,-0.191534 z"
             id="path15819"
             style="fill:#6c535d" />
          <path
             d="m 127.3269,98.615813 q -0.69503,0 -0.69503,1.02886 v 1.477617 h -0.48707 v -2.834836 h 0.48707 v 0.394031 q 0.20796,-0.459703 0.80448,-0.459703 0.61841,0 0.79901,0.492539 0.3393,-0.492539 0.8811,-0.492539 0.87562,0 0.87562,0.952243 v 1.948265 h -0.48706 v -1.784086 q 0,-0.722391 -0.49802,-0.722391 -0.68955,0 -0.68955,0.853735 v 1.652742 h -0.48707 v -1.844285 q 0,-0.662192 -0.50348,-0.662192 z"
             id="path15821"
             style="fill:#6c535d" />
          <path
             d="m 132.89207,101.18796 q -0.6403,0 -0.99055,-0.40497 -0.34478,-0.40498 -0.34478,-1.078117 0,-0.667665 0.35025,-1.072642 0.35572,-0.410449 0.98508,-0.410449 0.62935,0 0.97961,0.410449 0.35572,0.404977 0.35572,1.072642 0,0.673137 -0.35025,1.078117 -0.34478,0.40497 -0.98508,0.40497 z m 0,-2.572147 q -0.40498,0 -0.62936,0.300997 -0.2189,0.295523 -0.2189,0.788063 0,0.498007 0.2189,0.793537 0.21891,0.29552 0.62936,0.29552 0.41045,0 0.62935,-0.29552 0.21891,-0.29553 0.21891,-0.793537 0,-0.49254 -0.22438,-0.788063 -0.2189,-0.300997 -0.62388,-0.300997 z"
             id="path15823"
             style="fill:#6c535d" />
        </g>
      </g>
    </g>
  </g>
</svg>
